<svg version="1.1" id="Layer_1" xmlns="http://www.w3.org/2000/svg" xmlns:xlink="http://www.w3.org/1999/xlink" x="0px" y="0px"
	 width="100%" viewBox="0 0 100 100" enable-background="new 0 0 100 100" xml:space="preserve">
<path fill="#DB1B23" opacity="1.000000" stroke="none" 
	d="
M64.000000,101.000000 
	C42.666672,101.000000 21.833342,101.000000 1.000008,101.000000 
	C1.000006,67.666679 1.000006,34.333351 1.000003,1.000022 
	C34.333317,1.000015 67.666634,1.000015 100.999969,1.000007 
	C100.999977,34.333309 100.999977,67.666618 100.999985,100.999969 
	C88.833336,101.000000 76.666664,101.000000 64.000000,101.000000 
M62.896683,84.512199 
	C64.277046,83.933533 65.698891,83.436966 67.031471,82.763710 
	C83.167763,74.611351 90.637367,55.483940 84.306435,38.592358 
	C77.995781,21.754875 60.102489,12.172862 42.826878,16.379694 
	C25.068428,20.704103 13.710520,37.198162 15.721114,55.286461 
	C17.960981,75.437393 38.612820,92.071289 62.896683,84.512199 
z"/>
<path fill="#FCDADD" opacity="1.000000" stroke="none" 
	d="
M62.530430,84.668610 
	C38.612820,92.071289 17.960981,75.437393 15.721114,55.286461 
	C13.710520,37.198162 25.068428,20.704103 42.826878,16.379694 
	C60.102489,12.172862 77.995781,21.754875 84.306435,38.592358 
	C90.637367,55.483940 83.167763,74.611351 67.031471,82.763710 
	C65.698891,83.436966 64.277046,83.933533 62.530430,84.668610 
M36.602451,21.869757 
	C23.641680,29.005774 17.134470,41.007095 18.773645,54.751629 
	C20.375175,68.180519 29.650499,78.920258 42.691475,82.445671 
	C55.333206,85.863159 68.843216,81.192139 76.925018,70.609612 
	C85.655983,59.177071 85.708244,43.069126 77.051697,31.567308 
	C67.751488,19.210270 52.790779,15.417856 36.602451,21.869757 
z"/>
<path fill="#D81D25" opacity="1.000000" stroke="none" 
	d="
M36.932144,21.675339 
	C52.790779,15.417856 67.751488,19.210270 77.051697,31.567308 
	C85.708244,43.069126 85.655983,59.177071 76.925018,70.609612 
	C68.843216,81.192139 55.333206,85.863159 42.691475,82.445671 
	C29.650499,78.920258 20.375175,68.180519 18.773645,54.751629 
	C17.134470,41.007095 23.641680,29.005774 36.932144,21.675339 
M66.502617,48.667233 
	C65.949272,48.027855 65.395927,47.388481 65.152229,46.182476 
	C65.218842,45.041039 65.790550,43.293179 65.268570,42.858425 
	C62.296993,40.383400 55.622852,42.195538 53.055878,45.942860 
	C50.765064,49.287056 51.733253,56.012840 54.930820,57.912651 
	C58.331505,59.933136 62.662601,61.622673 65.485275,58.649292 
	C67.266197,56.773281 66.461189,52.442417 66.502617,48.667233 
M48.994587,53.299290 
	C48.994587,49.997910 48.994587,46.696529 48.994587,43.192524 
	C47.540440,43.192524 46.457382,43.192524 45.402912,43.192524 
	C44.997334,45.160496 44.626602,46.959373 44.240887,48.830956 
	C40.399059,47.678917 40.945152,40.700500 35.170624,43.470634 
	C35.170624,48.461960 35.170624,53.566692 35.170624,60.276867 
	C37.785469,58.201183 39.506016,56.835403 41.658474,55.126766 
	C42.498699,56.290504 43.389656,58.075657 44.771999,59.310921 
	C46.886135,61.200115 48.920227,58.762833 48.994587,53.299290 
z"/>
<path fill="#FEE9EB" opacity="1.000000" stroke="none" 
	d="
M66.816124,49.212708 
	C66.461189,52.442417 67.266197,56.773281 65.485275,58.649292 
	C62.662601,61.622673 58.331505,59.933136 54.930820,57.912651 
	C51.733253,56.012840 50.765064,49.287056 53.055878,45.942860 
	C55.622852,42.195538 62.296993,40.383400 65.268570,42.858425 
	C65.790550,43.293179 65.218842,45.041039 64.649841,46.340645 
	C62.108940,46.928963 59.285015,46.715797 58.255638,47.972527 
	C57.252129,49.197689 57.566227,52.138844 58.297867,53.916725 
	C58.758575,55.036247 61.051064,55.401955 62.521824,56.105820 
	C59.679535,49.561401 59.736546,49.464390 66.321075,49.268085 
	C66.486496,49.263157 66.651123,49.231758 66.816124,49.212708 
z"/>
<path fill="#FFF9FA" opacity="1.000000" stroke="none" 
	d="
M48.994019,53.761101 
	C48.920227,58.762833 46.886135,61.200115 44.771999,59.310921 
	C43.389656,58.075657 42.498699,56.290504 41.658474,55.126766 
	C39.506016,56.835403 37.785469,58.201183 35.170624,60.276867 
	C35.170624,53.566692 35.170624,48.461960 35.170624,43.470634 
	C40.945152,40.700500 40.399059,47.678917 44.240887,48.830956 
	C44.626602,46.959373 44.997334,45.160496 45.402912,43.192524 
	C46.457382,43.192524 47.540440,43.192524 48.994587,43.192524 
	C48.994587,46.696529 48.994587,49.997910 48.994019,53.761101 
z"/>
<path fill="#C6393E" opacity="1.000000" stroke="none" 
	d="
M66.659370,48.939972 
	C66.651123,49.231758 66.486496,49.263157 66.321075,49.268085 
	C59.736546,49.464390 59.679535,49.561401 62.521824,56.105820 
	C61.051064,55.401955 58.758575,55.036247 58.297867,53.916725 
	C57.566227,52.138844 57.252129,49.197689 58.255638,47.972527 
	C59.285015,46.715797 62.108940,46.928963 64.495026,46.623959 
	C65.395927,47.388481 65.949272,48.027855 66.659370,48.939972 
z"/>
</svg>